<svg version="1" xmlns="http://www.w3.org/2000/svg" width="346.667" height="346.667" viewBox="0 0 260.000000 260.000000"><path d="M24.3 107.7c.4 54 .1 51.7 7.3 65.3 6.9 13.1 22.1 24.3 38.9 28.5 9 2.3 26.4 2.3 36.1 0 4-.9 10.6-3.4 14.8-5.5l7.7-3.9 6.2 3.4c17.8 9.7 43.9 10.5 63.2 2 13.6-6.1 23.6-15.7 29.4-28.6 4.9-10.9 5.1-13.6 5.1-63.4V59h-6.9l-.3 49.2c-.4 55.5.1 51.9-8.5 64.8-10.1 15.3-26.6 23.3-47.8 23.4-11.8 0-18.6-1.4-27.8-5.6l-6.8-3.1 2.7-2.8 2.6-2.7 6.1 2.9c4.1 1.9 9 3.2 14.4 3.8 26.2 2.9 47.3-7.8 55.6-27.9 2.2-5.4 2.2-6.4 2.5-53.8l.3-48.2H212v46.5c0 44.2-.1 46.7-2 51.9-2.9 7.8-7.2 13.1-14 17.5-13.4 8.7-32.5 10.1-48.2 3.4-3.7-1.6-3.7-1.6-2.2-4.5 1.7-3.2 1.5-3.2 9.4-.3 7.2 2.7 24.7 1.8 32-1.6 7.3-3.4 12-7.6 15-13.6l2.5-4.8.3-47.3.3-47.2H198v44.7c0 28.2-.4 46.2-1.1 48.6-3.1 11.3-18.9 18.5-34.8 15.7-9-1.6-12-3.2-11.3-6.5.6-3.4 1.4-3.7 5.6-2 2.2.9 6.8 1.5 12.4 1.5 9.9 0 15.9-2.2 19.6-7.3 2-2.8 2.1-4.2 2.4-48.8l.3-45.9H184v44c0 30.5-.3 44.7-1.1 46.4-1.6 3.5-6.3 5.1-15 5.1-8.4-.1-12.3-1.7-13.9-6.1-.6-1.5-1-20.8-1-46V59h-7v45.8c0 37.9-.3 46.8-1.5 51.7-4.4 16.9-17.7 30.3-36.5 36.9-7.4 2.6-9.9 3-19.5 3-18.2.1-32.5-5.5-43.5-17-6.5-6.8-10.9-15.1-12.9-24.2-.7-3.5-1.1-21-1.1-50.7V59h-7.1l.4 48.7z"/><path d="M38 102.7c0 24.1.5 46.5 1 49.8 1.5 8.9 6.1 17.4 12.8 23.7 6.6 6 12 9 20.7 11.3 7.2 1.9 23.9 2.2 31 .5 12.5-3.1 24-11.2 29.8-21.2 5.4-9.4 5.7-12.1 5.7-62V59h-7v45.8c0 50.6-.1 51.7-6.3 60.8-7.1 10.7-20.4 16.6-37.2 16.6-16.5.1-29.6-5.8-36.9-16.5-6.3-9.3-6.6-11.8-6.6-61.9V59h-7v43.7z"/><path d="M52.2 105.8l.3 46.8 3.1 6c3.6 6.8 9.3 11.5 18 14.5 7 2.5 21.5 2.7 29.1.4 10.9-3.3 19.2-11.3 21.2-20.8.7-3 1.1-21.9 1.1-49.2V59h-7v44.8c0 50.3-.1 51.5-6.8 57.3-7 6.1-18.1 8.8-29.2 6.9-11.8-2-19.5-7.9-22-16.9-.6-2.2-1-21.3-1-47.9V59h-7.1l.3 46.8z"/><path d="M66.2 104.2c.3 43.4.4 45.4 2.3 48.8 3.3 5.7 9.1 8 20 8 10.2 0 16.2-2.2 19.9-7.3 2-2.8 2.1-4.2 2.4-48.8l.3-45.9H104v44c0 30.5-.3 44.7-1.1 46.4-1.6 3.5-6.3 5.1-15 5.1-8.4-.1-12.3-1.7-13.9-6.1-.6-1.5-1-20.8-1-46V59h-7.1l.3 45.2z"/></svg>