<svg xmlns="http://www.w3.org/2000/svg" id="Lager_1" version="1.1" xml:space="preserve" width="64" height="64"><style type="text/css" id="style45">.st1{fill:#fff}</style><path d="M31.883.637C14.506.637.403 14.74.403 32.117c0 17.377 14.103 31.48 31.48 31.48 17.377 0 31.48-14.103 31.48-31.48 0-17.377-14.103-31.48-31.48-31.48z" id="path47" fill="#85c808" stroke-width=".63"/><g id="g71" transform="matrix(.6296 0 0 .6296 -8.411 -8.177)"><g id="g57"><path class="st1" d="M42.5 50.3c-2.2 0-3.9 1.8-3.9 3.9v15.7c0 2.2 1.8 3.9 3.9 3.9 2.2 0 3.9-1.8 3.9-3.9V54.2c0-2.2-1.8-3.9-3.9-3.9z" id="path49" fill="#fff"/><path class="st1" d="M85.5 50.3c-2.2 0-3.9 1.8-3.9 3.9v15.7c0 2.2 1.8 3.9 3.9 3.9 2.2 0 3.9-1.8 3.9-3.9V54.2c0-2.2-1.7-3.9-3.9-3.9z" id="path51" fill="#fff"/><path class="st1" d="M48.3 81.6h3.9v9.8c0 2.2 1.8 3.9 3.9 3.9 2.2 0 3.9-1.8 3.9-3.9v-9.8h7.8v9.8c0 2.2 1.8 3.9 3.9 3.9 2.2 0 3.9-1.8 3.9-3.9v-9.8h3.9V52.2H48.3z" id="path53" fill="#fff"/><path class="st1" d="M73.2 37.7l2-3.5c.3-.5.1-1.1-.4-1.3-.5-.3-1.1-.1-1.3.4l-2 3.4c-2.2-1.3-4.8-2-7.6-2s-5.3.7-7.6 2l-2-3.4c-.3-.5-.9-.6-1.3-.4-.5.3-.6.9-.4 1.3l2 3.5c-3.9 2.8-6.4 7.4-6.4 12.6h31.3c.2-5.2-2.4-9.8-6.3-12.6zm-15.1 6.7c-1.1 0-2-.9-2-2s.9-2 2-2 2 .9 2 2-.9 2-2 2zm11.8 0c-1.1 0-2-.9-2-2s.9-2 2-2 2 .9 2 2-.9 2-2 2z" id="path55" fill="#fff"/></g></g></svg>