<svg xmlns="http://www.w3.org/2000/svg" width="64" height="64"><circle cx="64" cy="64" r="50" fill="#f2f2f2" transform="translate(-9.014 -8.472) scale(.63661)"/><path d="M33.702 19.539c-.573.191-1.337.318-2.419.382.064-2.292.637-4.265 1.783-5.92 1.146-1.656 3.055-2.802 5.73-3.375 0 .064.063.128.063.255s.064.191.064.255v.509c0 .955-.191 1.974-.637 3.12a9.238 9.238 0 0 1-2.1 3.182c-.829.764-1.656 1.337-2.484 1.592zm10.313 16.106c-1.082-1.528-1.591-3.246-1.591-5.093 0-1.719.51-3.31 1.464-4.774.51-.764 1.4-1.655 2.61-2.738-.827-.955-1.591-1.719-2.419-2.291-1.464-1.019-3.056-1.465-4.902-1.465-1.082 0-2.419.255-3.947.764-1.528.51-2.61.764-3.31.764-.51 0-1.592-.254-3.183-.7-1.592-.446-2.992-.7-4.075-.7-2.61 0-4.774 1.082-6.493 3.31-1.719 2.228-2.61 5.093-2.61 8.594 0 3.693 1.146 7.576 3.374 11.523 2.292 3.947 4.584 5.92 6.939 5.92.764 0 1.783-.254 3.056-.764 1.21-.509 2.355-.763 3.246-.763 1.019 0 2.165.254 3.438.763 1.4.51 2.483.764 3.183.764 1.974 0 3.947-1.527 5.92-4.52 1.274-1.91 2.229-3.82 2.802-5.729-1.21-.382-2.42-1.4-3.502-2.865z" fill="#231f20"/></svg>