<?xml version="1.0" encoding="UTF-8" standalone="no"?>
<svg
   xmlns:dc="http://purl.org/dc/elements/1.1/"
   xmlns:cc="http://creativecommons.org/ns#"
   xmlns:rdf="http://www.w3.org/1999/02/22-rdf-syntax-ns#"
   xmlns:svg="http://www.w3.org/2000/svg"
   xmlns="http://www.w3.org/2000/svg"
   xmlns:sodipodi="http://sodipodi.sourceforge.net/DTD/sodipodi-0.dtd"
   xmlns:inkscape="http://www.inkscape.org/namespaces/inkscape"
   id="Lager_1"
   version="1.1"
   viewBox="0 0 64 64"
   xml:space="preserve"
   sodipodi:docname="branch.svg"
   width="64"
   height="64"
   inkscape:version="0.92.2 (5c3e80d, 2017-08-06)"><metadata
     id="metadata42"><rdf:RDF><cc:Work
         rdf:about=""><dc:format>image/svg+xml</dc:format><dc:type
           rdf:resource="http://purl.org/dc/dcmitype/StillImage" /><dc:title></dc:title></cc:Work></rdf:RDF></metadata><defs
     id="defs40" /><sodipodi:namedview
     pagecolor="#ffffff"
     bordercolor="#666666"
     borderopacity="1"
     objecttolerance="10"
     gridtolerance="10"
     guidetolerance="10"
     inkscape:pageopacity="0"
     inkscape:pageshadow="2"
     inkscape:window-width="1360"
     inkscape:window-height="715"
     id="namedview38"
     showgrid="false"
     inkscape:zoom="4.265625"
     inkscape:cx="64"
     inkscape:cy="64"
     inkscape:window-x="1358"
     inkscape:window-y="-8"
     inkscape:window-maximized="1"
     inkscape:current-layer="Lager_1" /><g
     id="g35"
     transform="matrix(0.63428572,0,0,0.63428572,-8.7115018,-8.4770696)"><g
       id="g31"><g
         id="g29"><circle
           cx="64"
           cy="64"
           r="50"
           style="fill:#205081"
           id="circle27" /></g></g><path
       d="m 86.4,44.8 c -0.3,-0.5 -0.8,-0.9 -1.2,-1.2 -1,-0.8 -2.2,-1.4 -3.4,-1.8 -2.5,-1 -5.2,-1.6 -7.9,-2.1 -3.3,-0.5 -6.6,-0.7 -10.1,-0.8 -3.1,0 -6.4,0.2 -9.6,0.7 -2.3,0.4 -4.6,0.8 -6.8,1.6 -1.5,0.5 -2.9,1.1 -4.2,2 -0.6,0.4 -1.2,0.9 -1.6,1.5 -0.6,0.7 -0.8,1.6 -0.7,2.5 0.3,1.8 0.6,3.7 0.9,5.5 0.4,2.7 0.9,5.4 1.4,8.1 0.5,3 1,6 1.5,9 0.1,0.7 0.4,1.3 0.9,1.8 0.3,0.3 0.6,0.6 1,0.9 1.2,1 2.6,1.7 4.1,2.3 3.5,1.4 7.1,2 10.9,2.2 2.7,0.2 5.4,0.1 8.1,-0.3 2.3,-0.3 4.5,-0.8 6.7,-1.6 1.6,-0.6 3.2,-1.3 4.6,-2.3 0.6,-0.4 1.1,-0.9 1.6,-1.5 0.3,-0.4 0.5,-0.8 0.6,-1.3 0.7,-3.9 1.4,-7.8 2,-11.8 0.6,-3.6 1.2,-7.3 1.8,-10.9 0.1,-1.1 -0.1,-1.8 -0.6,-2.5 z M 64,71.8 c -4,0 -7.3,-3.3 -7.3,-7.3 0,-4 3.3,-7.3 7.3,-7.3 4.1,0 7.3,3.3 7.3,7.4 0,4 -3.3,7.2 -7.3,7.2 z M 78.6,46.3 c -0.2,0.2 -0.5,0.4 -0.7,0.6 -0.8,0.4 -1.6,0.7 -2.4,0.9 -1.6,0.4 -3.2,0.6 -4.9,0.8 -2.1,0.2 -4.3,0.3 -6.4,0.3 -2.5,0 -4.9,-0.1 -7.3,-0.4 -1.8,-0.2 -3.6,-0.5 -5.3,-1.1 -0.5,-0.2 -1,-0.4 -1.5,-0.6 -0.2,-0.1 -0.5,-0.3 -0.6,-0.5 -0.3,-0.4 -0.3,-0.8 0,-1.1 0.2,-0.2 0.4,-0.4 0.7,-0.5 0.7,-0.4 1.5,-0.7 2.3,-0.9 1.6,-0.4 3.3,-0.7 5,-0.9 2.8,-0.3 5.5,-0.4 8.3,-0.3 2.6,0.1 5.1,0.3 7.6,0.7 1.2,0.2 2.4,0.5 3.5,0.9 0.4,0.2 0.8,0.4 1.1,0.6 0.2,0.1 0.3,0.3 0.5,0.4 0.3,0.4 0.3,0.8 0.1,1.1 z M 81.3,77 c 0,0.1 0,0.3 0,0.5 -0.5,2.7 -1,5.4 -1.5,8.1 -0.2,0.9 -0.6,1.7 -1.2,2.3 -0.7,0.7 -1.5,1.3 -2.4,1.7 -1.6,0.8 -3.4,1.4 -5.2,1.7 -2.3,0.5 -4.6,0.7 -6,0.7 -4,0 -7,-0.3 -9.9,-1.2 -1.3,-0.4 -2.6,-0.9 -3.9,-1.6 -0.6,-0.4 -1.2,-0.8 -1.7,-1.3 -0.7,-0.7 -1.1,-1.4 -1.2,-2.3 -0.5,-2.7 -1,-5.4 -1.5,-8.1 0,-0.1 0,-0.3 0,-0.4 0,-0.7 0.6,-1 1.2,-0.7 0.1,0 0.1,0.1 0.2,0.1 2,1.4 4.2,2.4 6.5,3.1 2.1,0.7 4.3,1.1 6.5,1.3 2.5,0.2 5.1,0.2 7.6,-0.2 3.4,-0.5 6.6,-1.4 9.5,-3.1 0.6,-0.3 1.2,-0.7 1.7,-1.1 0.1,-0.1 0.2,-0.1 0.3,-0.2 0.4,-0.2 1,0.1 1,0.7 z M 67.7,64.5 c 0,2 -1.7,3.7 -3.7,3.7 -2,0 -3.7,-1.7 -3.6,-3.7 0,-2 1.6,-3.7 3.7,-3.6 1.9,-0.1 3.6,1.6 3.6,3.6 z"
       style="fill:#ffffff"
       id="path33"
       inkscape:connector-curvature="0" /></g></svg>