<?xml version="1.0" encoding="UTF-8" standalone="no"?>
<svg
   xmlns:dc="http://purl.org/dc/elements/1.1/"
   xmlns:cc="http://creativecommons.org/ns#"
   xmlns:rdf="http://www.w3.org/1999/02/22-rdf-syntax-ns#"
   xmlns:svg="http://www.w3.org/2000/svg"
   xmlns="http://www.w3.org/2000/svg"
   xmlns:sodipodi="http://sodipodi.sourceforge.net/DTD/sodipodi-0.dtd"
   xmlns:inkscape="http://www.inkscape.org/namespaces/inkscape"
   id="Lager_1"
   version="1.1"
   viewBox="0 0 64 64"
   xml:space="preserve"
   sodipodi:docname="joomla.svg"
   width="64"
   height="64"
   inkscape:version="0.92.2 (5c3e80d, 2017-08-06)"><metadata
     id="metadata243"><rdf:RDF><cc:Work
         rdf:about=""><dc:format>image/svg+xml</dc:format><dc:type
           rdf:resource="http://purl.org/dc/dcmitype/StillImage" /><dc:title></dc:title></cc:Work></rdf:RDF></metadata><defs
     id="defs241" /><sodipodi:namedview
     pagecolor="#ffffff"
     bordercolor="#666666"
     borderopacity="1"
     objecttolerance="10"
     gridtolerance="10"
     guidetolerance="10"
     inkscape:pageopacity="0"
     inkscape:pageshadow="2"
     inkscape:window-width="640"
     inkscape:window-height="480"
     id="namedview239"
     showgrid="false"
     inkscape:zoom="1.84375"
     inkscape:cx="64"
     inkscape:cy="64"
     inkscape:window-x="0"
     inkscape:window-y="0"
     inkscape:window-maximized="0"
     inkscape:current-layer="Lager_1" /><g
     id="g236"
     transform="matrix(0.62576271,0,0,0.62576271,-8.32,-7.7776271)"><g
       id="g224"><g
         id="g222"><circle
           cx="64"
           cy="64"
           r="50"
           style="fill:#e94c3d"
           id="circle220" /></g></g><g
       id="g234"><path
         d="m 43.6,51.3 0.5,0.1 -0.1,0.5 c -1.2,3.9 -0.1,8.1 2.8,11 L 58,74.1 62.4,69.7 51.1,58.4 c -1.9,-1.9 -1.9,-4.9 0,-6.8 0.9,-0.9 2.1,-1.4 3.4,-1.4 1.3,0 2.5,0.5 3.4,1.4 v 0 l 4.4,-4.4 v 0 C 60.2,45.1 57.5,44 54.5,44 53.6,44 52.8,44.1 52,44.3 l -0.5,0.1 -0.1,-0.5 c -0.5,-3.1 -3.2,-5.4 -6.4,-5.4 -3.6,0 -6.5,2.9 -6.5,6.5 0.1,3 2.1,5.6 5.1,6.3 z"
         style="fill:#ffffff"
         id="path226"
         inkscape:connector-curvature="0" /><path
         d="M 76.5,44.6 75.9,44.4 C 74.9,44.1 73.8,44 72.8,44 69.9,44 67.1,45.1 65,47.2 l -11.2,11.3 4.4,4.4 11.2,-11.2 c 0.9,-0.9 2.1,-1.4 3.4,-1.4 1.3,0 2.5,0.5 3.4,1.4 1.9,1.9 1.9,4.9 0,6.7 v 0 l 4.4,4.4 v 0 c 2.8,-2.8 3.9,-7 2.8,-10.9 l -0.2,-0.6 0.6,-0.1 c 3.2,-0.4 5.6,-3.2 5.6,-6.4 0,-3.6 -2.9,-6.5 -6.5,-6.5 -3.2,0 -6,2.4 -6.4,5.6 z"
         style="fill:#ffffff"
         id="path228"
         inkscape:connector-curvature="0" /><path
         d="m 45,89.5 c 3,0 5.6,-2.1 6.3,-5 l 0.1,-0.5 0.5,0.1 c 0.9,0.2 1.8,0.3 2.7,0.3 2.9,0 5.7,-1.1 7.8,-3.2 L 73.5,70 69.1,65.6 57.9,76.8 c -0.9,0.9 -2.1,1.4 -3.4,1.4 -1.3,0 -2.5,-0.5 -3.4,-1.4 -1.9,-1.9 -1.9,-4.9 0,-6.7 v 0 l -4.4,-4.4 v 0 c -2.7,2.7 -3.8,6.8 -2.9,10.5 l 0.1,0.5 -0.5,0.1 c -2.9,0.7 -5,3.3 -5,6.3 0.1,3.5 3,6.4 6.6,6.4 z"
         style="fill:#ffffff"
         id="path230"
         inkscape:connector-curvature="0" /><path
         d="m 72.8,84.4 c 1.1,0 2.2,-0.2 3.2,-0.5 l 0.5,-0.2 0.1,0.5 c 0.6,3 3.3,5.2 6.3,5.2 3.6,0 6.5,-2.9 6.5,-6.5 0,-3.2 -2.4,-6 -5.5,-6.4 l -0.5,-0.1 0.1,-0.5 C 84.4,72.1 83.3,68.2 80.6,65.5 L 69.4,54.4 65,58.8 76.2,70 c 1.9,1.9 1.9,4.9 0,6.7 -0.9,0.9 -2.1,1.4 -3.4,1.4 -1.3,0 -2.5,-0.5 -3.4,-1.4 v 0 L 65,81.2 v 0 c 2.1,2.1 4.9,3.2 7.8,3.2 z"
         style="fill:#ffffff"
         id="path232"
         inkscape:connector-curvature="0" /></g></g></svg>