<svg xmlns="http://www.w3.org/2000/svg" width="64" height="64"><circle cx="64" cy="64" r="50" fill="#f0db4f" transform="translate(-9.014 -8.472) scale(.63661)"/><g fill="#323330"><path d="M21.798 19.92h5.538v15.598c0 7.003-3.374 9.485-8.721 9.485-1.337 0-2.992-.19-4.075-.573l.637-4.52a9.332 9.332 0 0 0 2.865.446c2.355 0 3.82-1.082 3.82-4.838zM32.238 38.892c1.464.764 3.82 1.528 6.175 1.528 2.547 0 3.884-1.082 3.884-2.738 0-1.527-1.146-2.419-4.138-3.437-4.075-1.465-6.812-3.756-6.812-7.385 0-4.138 3.565-7.321 9.358-7.321 2.801 0 4.838.573 6.302 1.273l-1.273 4.456a11.98 11.98 0 0 0-5.093-1.145c-2.419 0-3.565 1.145-3.565 2.355 0 1.592 1.337 2.292 4.584 3.501 4.329 1.592 6.366 3.884 6.366 7.385 0 4.138-3.12 7.64-9.931 7.64-2.801 0-5.602-.765-7.003-1.528z"/></g></svg>