<?xml version="1.0" encoding="UTF-8" standalone="no"?>
<svg
   xmlns:dc="http://purl.org/dc/elements/1.1/"
   xmlns:cc="http://creativecommons.org/ns#"
   xmlns:rdf="http://www.w3.org/1999/02/22-rdf-syntax-ns#"
   xmlns:svg="http://www.w3.org/2000/svg"
   xmlns="http://www.w3.org/2000/svg"
   xmlns:sodipodi="http://sodipodi.sourceforge.net/DTD/sodipodi-0.dtd"
   xmlns:inkscape="http://www.inkscape.org/namespaces/inkscape"
   id="Lager_1"
   version="1.1"
   viewBox="0 0 64 64"
   xml:space="preserve"
   sodipodi:docname="css.svg"
   width="64"
   height="64"
   inkscape:version="0.92.2 (5c3e80d, 2017-08-06)"><metadata
     id="metadata248"><rdf:RDF><cc:Work
         rdf:about=""><dc:format>image/svg+xml</dc:format><dc:type
           rdf:resource="http://purl.org/dc/dcmitype/StillImage" /><dc:title></dc:title></cc:Work></rdf:RDF></metadata><defs
     id="defs246" /><sodipodi:namedview
     pagecolor="#ffffff"
     bordercolor="#666666"
     borderopacity="1"
     objecttolerance="10"
     gridtolerance="10"
     guidetolerance="10"
     inkscape:pageopacity="0"
     inkscape:pageshadow="2"
     inkscape:window-width="640"
     inkscape:window-height="480"
     id="namedview244"
     showgrid="false"
     inkscape:zoom="1.84375"
     inkscape:cx="64"
     inkscape:cy="64"
     inkscape:window-x="1552"
     inkscape:window-y="172"
     inkscape:window-maximized="0"
     inkscape:current-layer="Lager_1" /><style
     type="text/css"
     id="style225">
	.st0{fill:#214674;}
	.st1{fill:#F6F6F6;}
</style><g
     id="g235"
     transform="matrix(0.63661017,0,0,0.63661017,-9.0142373,-8.4718644)"><g
       id="g233"><g
         id="g231"><g
           id="g229"><circle
             class="st0"
             cx="64"
             cy="64"
             r="50"
             id="circle227"
             style="fill:#214674" /></g></g></g></g><g
     id="g241"
     transform="matrix(0.63661017,0,0,0.63661017,-9.0142373,-8.4718644)"><path
       class="st1"
       d="m 75.3,63.4 c 4,1.4 6.1,3.8 6.1,7.3 0,2.3 -0.8,4 -2.5,5.4 -1.7,1.3 -4,2.1 -7.1,2.1 -2.9,0 -5.6,-0.8 -8.1,-2.1 -0.3,-0.2 -0.5,-0.5 -0.5,-0.9 0.1,-0.6 0.3,-1.3 0.6,-2 0.3,-0.6 0.5,-1.1 0.8,-1.6 0.3,-0.4 0.7,-0.5 1.2,-0.3 2.2,1 4,1.6 5.7,1.6 0.8,0 1.5,-0.1 2,-0.4 0.5,-0.3 0.7,-0.7 0.7,-1.1 0,-0.9 -0.7,-1.6 -2.1,-2 l -2.5,-0.9 c -3.8,-1.4 -5.7,-3.6 -5.7,-6.8 0,-2.3 0.8,-4.1 2.4,-5.4 1.6,-1.3 3.7,-2.5 6.4,-2.5 1.3,0 2.8,0.2 4.4,0.6 1.4,0.3 2.5,1 3.5,1.6 0.3,0.2 0.5,0.5 0.5,0.9 0,0.7 -0.2,1.4 -0.5,2.2 -0.3,0.7 -0.6,1.3 -1,1.7 -0.3,0.3 -0.7,0.4 -1,0.2 -2.3,-1 -4.2,-1.5 -5.8,-1.5 -0.6,0 -1.1,0.1 -1.4,0.4 -0.3,0.3 -0.5,0.6 -0.5,1 0,0.7 0.6,1.3 1.7,1.7 z"
       id="path21_1_"
       inkscape:connector-curvature="0"
       style="fill:#f6f6f6" /><path
       class="st1"
       d="m 93.9,67 c -1.3,1.1 -2,2.7 -2,4.9 v 7.9 c 0,2.6 -0.8,4.6 -2.6,6 -1.8,1.4 -3.9,2 -6.3,2.1 h -1.4 v -3.3 c 0,-0.4 0.2,-0.7 0.6,-0.8 0.9,-0.3 1.3,-0.7 1.7,-1.1 0.9,-0.8 1.6,-2.2 1.6,-4 v -6.4 c 0,-2.2 0.2,-3.9 1,-5.1 0.6,-0.9 1.6,-1.7 3,-2.5 0.6,-0.3 0.6,-1.2 0,-1.6 -1.7,-1 -2.8,-2.2 -3.5,-3.7 -0.5,-1.1 -0.5,-2.6 -0.5,-4.5 v -5.8 c 0,-1.9 -0.6,-3.3 -1.4,-4 -0.4,-0.4 -0.9,-0.8 -1.8,-1 -0.4,-0.1 -0.6,-0.5 -0.6,-0.9 v -2.1 c 0,-0.5 0.4,-0.9 0.9,-0.9 1.1,0 1.9,0 2.7,0 1.5,0 2.8,0.8 3.9,1.7 1.2,1 2.1,2.2 2.6,3.9 0.3,0.9 0.3,1.8 0.3,2.7 v 6.7 c 0,2.4 0.7,4.2 1.9,5.3 0.6,0.6 1.4,1.1 2.7,1.6 0.4,0.1 0.6,0.5 0.6,0.8 v 1.7 c 0,0.4 -0.2,0.7 -0.6,0.9 -1.4,0.4 -2.2,0.9 -2.8,1.5 z"
       id="path27_1_"
       inkscape:connector-curvature="0"
       style="fill:#f6f6f6" /><path
       class="st1"
       d="m 44.8,40.2 v 0 c -0.5,0 -0.9,0 -1.3,0 -1.5,0 -2.8,0.8 -3.9,1.7 -1.2,1 -2.3,2.2 -2.6,3.9 -0.2,1 -0.1,1.8 -0.1,2.7 v 6.7 c 0,2.4 -0.9,4.1 -2.1,5.3 -0.6,0.6 -1.8,1.1 -3.2,1.6 C 31.2,62.3 31,62.6 31,63 v 1.7 c 0,0.4 0.2,0.7 0.6,0.9 1.2,0.4 2.3,0.9 3,1.5 1.3,1.1 2.2,2.7 2.2,4.9 v 7.9 c 0,2.6 0.6,4.6 2.4,6 1.8,1.4 3.9,2 6.3,2.1 h 0.7 c 0.5,0 0.9,-0.4 0.9,-0.9 V 84.7 C 47.1,84.3 46.9,84 46.5,83.9 45.6,83.6 45,83.2 44.6,82.8 43.7,82 43.2,80.6 43.2,78.8 v -6.4 c 0,-2.2 -0.4,-3.9 -1.2,-5.1 -0.6,-0.9 -1.6,-1.7 -3,-2.5 -0.6,-0.3 -0.6,-1.2 0,-1.6 1.7,-1 2.8,-2.2 3.5,-3.7 0.5,-1.1 0.7,-2.6 0.7,-4.5 v -5.8 c 0,-1.9 0.4,-3.3 1.2,-4 0.4,-0.4 1.1,-0.7 2.1,-1 0.1,0 0.2,0 0.3,0 h 0.6 c 0.5,0 0.9,-0.4 0.9,-0.9 v -2.1 c 0,-0.5 -0.4,-0.9 -0.9,-0.9 z"
       id="path29_1_"
       inkscape:connector-curvature="0"
       style="fill:#f6f6f6" /><path
       class="st1"
       d="M 61,72.1 H 59.8 C 58.5,72.1 58,71.4 58,70 V 44.1 c 0,-1.6 -0.5,-2.7 -1,-3.3 -0.6,-0.6 -1.6,-0.6 -3,-0.6 h -2.2 c -0.5,0 -0.9,0.4 -0.9,0.9 v 3 27.2 c 0,2.2 0.5,3.7 1.4,4.8 0.9,1 2.3,1.5 4.4,1.5 1.3,0 2.7,-0.1 4.2,-0.3 0.4,-0.1 0.7,-0.4 0.8,-0.8 0,-0.3 0,-0.7 0,-1.2 -0.2,-1.2 -0.4,-2.2 -0.7,-3.2 z"
       id="path31_1_"
       inkscape:connector-curvature="0"
       style="fill:#f6f6f6" /></g></svg>