<svg xmlns="http://www.w3.org/2000/svg" width="50" height="50" viewBox="0 0 50 50">
  <defs>
    <linearGradient id="a" x1="0%" y1="0%" y2="100%">
      <stop stop-color="#5CE6FF" offset="0%"/>
      <stop stop-color="#2FC8FF" offset="100%"/>
    </linearGradient>
    <linearGradient id="b" x1="0%" y1="0%" y2="100%">
      <stop stop-color="#418EEA" offset="0%"/>
      <stop stop-color="#1F55D0" offset="100%"/>
    </linearGradient>
    <linearGradient id="c" x1="-34.339%" x2="50%" y1="50%" y2="100%">
      <stop stop-color="#2C66BE" offset="0%"/>
      <stop stop-color="#143689" offset="100%"/>
    </linearGradient>
    <linearGradient id="d" x1="-26.322%" x2="147.671%" y1="-37.221%" y2="127.902%">
      <stop stop-color="#5CE6FF" offset="0%"/>
      <stop stop-color="#2FC8FF" offset="100%"/>
    </linearGradient>
  </defs>
  <g fill="none" fill-rule="evenodd">
    <rect width="35" height="44" x="11" y="6" fill="url(#a)" rx="3.6"/>
    <path fill="url(#b)" d="M5,3.60070467 C5,1.61209039 6.61197436,0 8.59304249,0 L27.8098363,0 C28.4671455,0 29.3786449,0.378644899 29.8448866,0.844886586 L39.1551134,10.1551134 C39.6217314,10.6217314 40,11.5452439 40,12.1939831 L40,40.4056019 C40,42.3907331 38.3820723,44 36.4025546,44 L8.59744543,44 C6.61063118,44 5,42.3818341 5,40.3992953 L5,3.60070467 Z"/>
    <path fill="url(#c)" d="M39.7067819,11 L32.5993473,11 C30.6114827,11 29,9.39282801 29,7.40780403 L29,0.291269073 C29.3297686,0.439596892 29.6332143,0.633214313 29.8448866,0.844886586 L39.1551134,10.1551134 C39.3659571,10.3659571 39.5587623,10.6700864 39.7067819,11 Z"/>
    <path fill="url(#d)" d="M11,20 L11,29 L12.794,29 L12.794,26.0428571 L14.393,26.0428571 C15.264,26.0428571 16.005,25.7471429 16.603,25.1685714 C17.201,24.59 17.5,23.87 17.5,23.0214286 C17.5,22.1728571 17.201,21.4528571 16.603,20.8742857 C16.005,20.2957143 15.264,20 14.393,20 L11,20 Z M12.8000002,24.4059996 L12.8000002,21.6499996 L14.3990002,21.6499996 C15.1660002,21.6499996 15.7250002,22.2349996 15.7250002,23.0279996 C15.7250002,23.8079996 15.1660002,24.4059996 14.3990002,24.4059996 L12.8000002,24.4059996 Z M19,20 L19,29 L22.614,29 C23.862,29 24.902,28.5628571 25.734,27.7014286 C26.579,26.84 26.995,25.7728571 26.995,24.5 C26.995,23.2271429 26.579,22.16 25.734,21.2985714 C24.902,20.4371429 23.862,20 22.614,20 L19,20 Z M20.7399998,27.2499995 L20.7399998,21.6499996 L22.5599998,21.6499996 C23.3529998,21.6499996 23.9899998,21.9068803 24.4839998,22.4334858 C24.9779998,22.9472473 25.2249998,23.6151372 25.2249998,24.4499996 C25.2249998,25.2848619 24.9779998,25.9527518 24.4839998,26.4793573 C23.9899998,26.9931188 23.3529998,27.2499995 22.5599998,27.2499995 L20.7399998,27.2499995 Z M33.434,20 L28,20 L28,29 L29.794,29 L29.794,25.5285714 L33.33,25.5285714 L33.33,23.8314286 L29.794,23.8314286 L29.794,21.6971429 L33.434,21.6971429 L33.434,20 Z"/>
  </g>
</svg>
