<svg xmlns="http://www.w3.org/2000/svg" width="64" height="64"><circle cx="64" cy="64" r="50" fill="#36447f" transform="translate(-7.277 -7.511) scale(.61553)"/><g fill="#c9d5f7"><path d="M18.39 27.39c1.417 0 2.34.246 2.832.8.493.492.554 1.415.308 2.646-.246 1.293-.739 2.278-1.477 2.832-.739.554-1.847.862-3.324.862H14.45l1.355-7.14h2.585zM9.344 41.73h3.693l.861-4.555h3.201c1.416 0 2.524-.123 3.447-.43.924-.308 1.724-.8 2.462-1.478.616-.554 1.108-1.23 1.54-1.908.369-.677.676-1.477.8-2.277.369-2.032.122-3.57-.862-4.74-.985-1.108-2.524-1.662-4.678-1.662h-7.14zM29.101 20.188h3.693l-.861 4.555h3.262c2.031 0 3.508.369 4.247 1.108.8.738 1.046 1.908.677 3.508L38.58 37.3h-3.754l1.477-7.509c.184-.862.123-1.416-.185-1.724-.308-.307-.923-.492-1.846-.492h-2.955L29.409 37.3h-3.693zM48.367 27.39c1.416 0 2.34.246 2.832.8.492.492.554 1.415.307 2.646-.246 1.293-.738 2.278-1.477 2.832-.738.554-1.846.862-3.324.862h-2.277l1.354-7.14h2.585zM39.32 41.73h3.693l.862-4.555h3.2c1.416 0 2.524-.123 3.448-.43.923-.308 1.723-.8 2.462-1.478.615-.554 1.108-1.23 1.539-1.908.369-.677.677-1.477.8-2.277.37-2.032.123-3.57-.862-4.74-.985-1.108-2.524-1.662-4.678-1.662h-7.14z"/></g></svg>