<svg xmlns="http://www.w3.org/2000/svg" width="64" height="64"><circle cx="64" cy="64" r="50" fill="#c69" transform="matrix(.62576 0 0 .62576 -7.778 -8.32)"/><path d="M49.104 17.837c-.375-1.502-1.44-2.753-3.066-3.63-3.191-1.69-8.323-1.752-13.016-.062-2.816 1.001-8.135 3.254-12.14 6.946-4.005 3.754-4.63 7.071-4.317 8.385.688 3.63 4.505 6.195 7.509 8.323.813.563 1.564 1.064 2.127 1.564-1.69.876-6.257 3.442-7.509 6.133-.939 2.127-.5 3.692-.125 4.38.375.813 1.001 1.44 1.627 1.627.626.188 1.314.25 2.002.25 2.691 0 5.32-1.439 6.946-3.88 1.627-2.44 1.753-5.694 1.002-7.696 1.063-.25 2.19-.25 3.441-.126 2.44.313 3.63 1.252 4.193 2.003.626.813.75 1.627.688 2.127-.125.94-.876 1.502-1.251 1.753-.313.187-.563.375-.5.75.124.501.625.439.813.439.563-.126 2.565-1.127 2.69-3.38.063-1.376-.5-2.753-1.564-3.88-1.377-1.439-3.442-2.19-5.82-2.127-1.752 0-2.94.188-3.88.5l-.062-.062c-.876-.938-2.065-1.815-3.129-2.69-2.503-1.878-4.818-3.693-4.693-6.383.188-3.38 3.504-6.696 9.95-9.887 5.694-2.816 10.325-2.942 12.765-2.065 1.001.375 1.69.876 1.94 1.439.5 1.064.313 2.44-.563 3.942-1.44 2.503-5.069 5.632-10.638 6.258-3.38.375-4.818-1.127-4.881-1.19-.375-.437-.626-.688-1.064-.437-.5.25-.25.938-.125 1.189.25.688 1.314 1.877 3.129 2.503 1.44.5 5.131.813 9.7-.939 5.256-2.128 8.885-7.76 7.821-12.077zM27.515 44.494c-.062.126-.062.25-.125.376-.062.125-.125.25-.125.375a5.446 5.446 0 0 1-1.126 1.627c-1.44 1.565-3.38 2.003-4.005 1.627-.188-.125-.25-.313-.313-.563-.125-.75.313-2.253 1.627-3.567 1.564-1.627 3.755-2.816 4.255-3.066.188 1.126.125 2.19-.188 3.191z" fill="#fff"/></svg>