<svg xmlns="http://www.w3.org/2000/svg" id="Lager_1" version="1.1" xml:space="preserve" width="64" height="64"><style type="text/css" id="style89">.st1{fill:#fff}</style><g id="g99" transform="matrix(.62576 0 0 .62576 -8.32 -7.778)"><g id="g97"><g id="g95"><g id="g93"><circle cx="64" cy="64" r="50" id="circle91" fill="#9b5c8f"/></g></g></g></g><g id="g107" transform="matrix(.62576 0 0 .62576 -8.32 -7.778)"><path class="st1" d="M27.4 50.2c.5-.6 1.2-1 2.1-1 1.7-.1 2.7.7 2.9 2.4 1 7 2.2 12.9 3.4 17.8l7.3-14c.7-1.3 1.5-1.9 2.5-2 1.5-.1 2.4.8 2.7 2.8.8 4.5 1.9 8.2 3.2 11.5.9-8.5 2.3-14.7 4.4-18.4.5-.9 1.2-1.4 2.2-1.5.8-.1 1.5.2 2.1.7.6.5 1 1.1 1 1.9 0 .6-.1 1.1-.3 1.6-1.3 2.4-2.4 6.5-3.3 12.1-.8 5.5-1.1 9.7-.9 12.8.1.8-.1 1.6-.4 2.2-.4.7-1 1.1-1.8 1.2-.9.1-1.8-.3-2.6-1.2-3.1-3.2-5.6-7.9-7.4-14.3-2.2 4.3-3.8 7.5-4.8 9.7-2 3.8-3.7 5.7-5.1 5.8-.9.1-1.7-.7-2.3-2.3-1.7-4.4-3.6-12.9-5.5-25.5 0-.9.2-1.7.6-2.3z" id="path101" fill="#fff"/><path class="st1" d="M99.5 55.5c-1.2-2.1-3-3.4-5.4-3.9-.6-.1-1.2-.2-1.8-.2-3.2 0-5.8 1.7-7.9 5-1.7 2.9-2.6 6-2.6 9.5 0 2.6.5 4.8 1.6 6.6 1.2 2.1 3 3.4 5.4 3.9.6.1 1.2.2 1.8.2 3.3 0 5.9-1.7 7.9-5 1.7-2.9 2.6-6 2.6-9.5 0-2.6-.5-4.8-1.6-6.6zm-4.2 9.3c-.5 2.2-1.3 3.9-2.5 5-1 .9-1.9 1.2-2.7 1.1-.8-.2-1.5-.9-2-2.2-.4-1-.6-2.1-.6-3.1 0-.8.1-1.7.2-2.4.3-1.4.9-2.7 1.8-4 1.1-1.6 2.3-2.3 3.5-2.1.8.2 1.5.9 2 2.2.4 1 .6 2.1.6 3.1-.1.7-.2 1.6-.3 2.4z" id="path103" fill="#fff"/><path class="st1" d="M78.5 55.5c-1.2-2.1-3-3.4-5.4-3.9-.6-.1-1.2-.2-1.8-.2-3.2 0-5.8 1.7-7.9 5-1.7 2.9-2.6 6-2.6 9.5 0 2.6.5 4.8 1.6 6.6 1.2 2.1 3 3.4 5.4 3.9.6.1 1.2.2 1.8.2 3.3 0 5.9-1.7 7.9-5 1.7-2.9 2.6-6 2.6-9.5 0-2.6-.5-4.8-1.6-6.6zm-4.2 9.3c-.5 2.2-1.3 3.9-2.5 5-1 .9-1.9 1.2-2.7 1.1-.8-.2-1.5-.9-2-2.2-.4-1-.6-2.1-.6-3.1 0-.8.1-1.7.2-2.4.3-1.4.9-2.7 1.8-4 1.1-1.6 2.3-2.3 3.5-2.1.8.2 1.5.9 2 2.2.4 1 .6 2.1.6 3.1-.1.7-.2 1.6-.3 2.4z" id="path105" fill="#fff"/></g></svg>