<svg xmlns="http://www.w3.org/2000/svg" width="64" height="64"><circle cx="64" cy="64" r="50" fill="#21759b" transform="matrix(.62034 0 0 .62034 -7.702 -7.702)"/><path d="M14.94 32a16.938 16.938 0 0 0 9.616 15.322l-8.127-22.27A17.217 17.217 0 0 0 14.941 32zm28.536-.868c0-2.11-.744-3.536-1.427-4.715-.868-1.427-1.674-2.605-1.674-3.97 0-1.551 1.178-3.04 2.853-3.04h.248A16.902 16.902 0 0 0 32 14.941c-5.955 0-11.166 3.04-14.206 7.692h1.117c1.799 0 4.528-.248 4.528-.248.93-.062 1.055 1.302.124 1.427 0 0-.93.124-1.923.186l6.204 18.424 3.722-11.166-2.668-7.258c-.992-.062-1.86-.124-1.86-.124-.931-.062-.807-1.49.123-1.427 0 0 2.792.248 4.467.248 1.799 0 4.528-.248 4.528-.248.93-.062 1.055 1.302.124 1.427 0 0-.93.124-1.923.186l6.142 18.3 1.675-5.645c.868-2.296 1.302-4.095 1.302-5.583zM32.31 33.489l-5.087 14.826c1.551.434 3.164.682 4.839.682 1.985 0 3.908-.372 5.645-.992-.062-.062-.062-.124-.124-.248zm14.64-9.677c.062.558.124 1.116.124 1.736 0 1.737-.31 3.66-1.302 6.08L40.56 46.64c5.086-2.854 8.498-8.375 8.498-14.64 0-2.978-.806-5.77-2.109-8.188zM12.15 32c0 10.918 8.932 19.85 19.85 19.85 10.918 0 19.85-8.932 19.85-19.85 0-10.918-8.932-19.85-19.85-19.85-10.918 0-19.85 8.932-19.85 19.85zm.93 0c0-10.422 8.498-18.92 18.92-18.92 10.422 0 18.92 8.498 18.92 18.92 0 10.422-8.498 18.92-18.92 18.92-10.422 0-18.92-8.498-18.92-18.92z" fill="#fff"/></svg>