<svg xmlns="http://www.w3.org/2000/svg" width="50" height="50" viewBox="0 0 50 50">
  <defs>
    <linearGradient id="a" x1="-16.831%" y1="37.803%" y2="37.803%">
      <stop stop-color="#418EEA" offset="0%"/>
      <stop stop-color="#1F55D0" offset="100%"/>
    </linearGradient>
  </defs>
  <g fill="none" fill-rule="evenodd">
    <circle cx="40" cy="9" r="5" fill="#2DC7FF"/>
    <path fill="url(#a)" d="M22.3011781,33.9089965 L6.19974831,49.9488072 C5.90606394,50.2412607 5.4309568,50.2412607 5.13727242,49.9488072 L0.219813279,45.0484527 C-0.073871093,44.7559992 -0.073871093,44.2826467 0.219813279,43.9901932 L16.326694,27.9441174 C16.3028112,27.8498016 16.2967311,27.7493603 16.3117122,27.6471693 L20.2601452,0.982097479 C20.3415488,0.432352338 20.8482123,0.0821529319 21.3938839,0.185898279 L27.6088312,1.36750979 C28.1564734,1.47162979 28.5333955,1.99786172 28.4551116,2.54371851 L25.2288865,25.0394888 L47.7125381,21.8366582 C48.2497031,21.7601382 48.7786521,22.1328978 48.8742279,22.6720536 L49.9867751,28.9480821 C50.0814066,29.481911 49.7207853,29.9880694 49.1791957,30.0667207 L22.6065811,33.9256731 C22.5013133,33.9410759 22.3979438,33.9343375 22.3011781,33.9089965 Z"/>
  </g>
</svg>
