<svg xmlns="http://www.w3.org/2000/svg" width="50" height="50" viewBox="0 0 50 50">
  <defs>
    <linearGradient id="a" x1="-16.831%" y1="37.803%" y2="37.803%">
      <stop stop-color="#418EEA" offset="0%"/>
      <stop stop-color="#1F55D0" offset="100%"/>
    </linearGradient>
  </defs>
  <g fill="none" fill-rule="evenodd">
    <path fill="url(#a)" d="M24.0512337,10.1585999 C24.0512337,9.43181414 24.636427,8.84302566 25.3600311,8.84302566 C26.0836353,8.84302566 26.6688286,9.43181414 26.6688286,10.1585999 C26.6688286,10.8843635 26.0836353,11.473152 25.3600311,11.473152 C24.636427,11.473152 24.0512337,10.8843635 24.0512337,10.1585999 Z M42.3855927,11.3504877 C42.5056845,11.0100944 42.6094927,11.2697338 42.6949818,10.4264169 C43.2659268,4.8319041 38.8021745,0.000976344445 33.2036561,0.000976344445 L28.9403961,0.000976344445 C24.2934528,0.000976344445 19.5406659,4.44142284 19.4500882,9.08528758 L19.4500882,10.472416 C19.4500882,11.0254274 19.0043236,11.473152 18.4537331,11.473152 L15.4778982,11.473152 L15.3506822,11.473152 L13.0730083,11.473152 C11.1637518,11.473152 9.61680612,13.0279216 9.61680612,14.945573 L9.61680612,21.9476583 C9.61680612,22.6315116 9.06418014,23.1855452 8.38433825,23.1855452 L7.02058354,23.1855452 C6.33972392,23.1855452 5.78811567,22.6315116 5.78811567,21.9476583 L5.78811567,18.1440438 C5.78811567,17.6503201 5.39018426,17.250639 4.89862193,17.250639 L0.888776012,17.250639 C0.39823141,17.250639 0.0003,17.6503201 0.0003,18.1440438 L0.0003,26.2429521 C0.0003,27.7650112 1.22869696,28.9988093 2.74307532,28.9988093 L5.78811567,28.9988093 L13.0312815,28.9875651 C14.3838412,28.9855206 15.4778982,27.8846088 15.4778982,26.5271243 L15.4778982,19.0190489 C15.4778982,18.160399 16.1709705,17.4642793 17.0258615,17.4642793 L18.4537331,17.4642793 C19.0043236,17.4642793 19.4500882,17.9120039 19.4500882,18.4650153 L19.4500882,48.4717618 C19.4500882,49.3161008 20.1309478,50.0009763 20.9715906,50.0009763 L25.0944043,50.0009763 C25.9340294,50.0009763 26.6159067,49.3161008 26.6159067,48.4717618 L26.6159067,44.3747753 C26.6159067,43.5304362 27.2977841,42.8455607 28.1384269,42.8455607 L34.2987308,42.8455607 C35.1383559,42.8455607 35.8192155,43.5283918 35.821251,44.3706864 L35.8304105,48.4758506 C35.832446,49.3181453 36.5133056,50.0009763 37.3529307,50.0009763 L41.4787976,50.0009763 C42.3194404,50.0009763 43.0003,49.3161008 43.0003,48.4717618 L43.0003,11.3504877 L42.3855927,11.3504877 Z"/>
    <path fill="#FFFFFF" d="M25.4816,11.8619 C24.5086,11.8619 23.7186,11.0729 23.7186,10.0989 C23.7186,9.1259 24.5086,8.3369 25.4816,8.3369 C26.4556,8.3369 27.2446,9.1259 27.2446,10.0989 C27.2446,11.0729 26.4556,11.8619 25.4816,11.8619"/>
    <path fill="#2DC7FF" d="M47.5842734,27 L41.3772395,27 C36.1984074,27 32,22.8677443 32,17.7705119 L32,12.2294881 C32,7.13225569 36.1984074,3 41.3772395,3 L47.5842734,3 C48.9180491,3 50,4.06392359 50,5.37766348 L50,24.6223365 C50,25.9350967 48.9180491,27 47.5842734,27"/>
  </g>
</svg>
