<svg xmlns="http://www.w3.org/2000/svg" width="50" height="50" viewBox="0 0 50 50">
  <defs>
    <linearGradient id="a" x1="-17.815%" y1="50%" y2="50%">
      <stop stop-color="#5CE6FF" offset="0%"/>
      <stop stop-color="#2FC8FF" offset="100%"/>
    </linearGradient>
    <linearGradient id="b" x1="0%" y1="0%" y2="154.569%">
      <stop stop-color="#4A7BF1" offset="0%"/>
      <stop stop-color="#1B50CF" offset="100%"/>
    </linearGradient>
    <linearGradient id="c" x1="50%" x2="-40.436%" y1="68.531%" y2="2.644%">
      <stop stop-color="#4A7BF1" offset="0%"/>
      <stop stop-color="#1B50CF" offset="100%"/>
    </linearGradient>
  </defs>
  <g fill="none" fill-rule="evenodd">
    <circle cx="36.5" cy="14.5" r="9.5" fill="url(#a)"/>
    <path fill="#2154CF" d="M15.9969628,15.0004194 C15.980034,14.447903 16.4069744,14 16.9715223,14 L37.0214524,14 C37.5766156,14 38.012718,14.455173 37.996012,15.0004194 L36.9542988,48.9995806 C36.93737,49.552097 36.4716574,50 35.9254614,50 L18.0675134,50 C17.5162309,50 17.055382,49.544827 17.038676,48.9995806 L15.9969628,15.0004194 Z"/>
    <path fill="url(#b)" d="M16.4004176,26.5082041 C16.389481,26.2275307 16.6076722,26 16.8898103,26 L34.90847,26 C35.1896907,26 35.4096365,26.2266151 35.3996603,26.5082041 L34.7625323,44.4917959 C34.7525885,44.7724693 34.5217004,45 34.2360945,45 L17.6293903,45 C17.3485906,45 17.1121272,44.7733849 17.101155,44.4917959 L16.4004176,26.5082041 Z"/>
    <path fill="url(#c)" d="M19.0060254,0.80293885 C18.9610375,0.492571514 19.1718825,0.207268584 19.5077242,0.161504916 L20.652386,0.00552692237 C20.9744545,-0.0383599209 21.2728008,0.184125679 21.3176696,0.494902666 L25,26 L22.6583452,26 L19.0060254,0.80293885 Z"/>
    <path fill="url(#a)" d="M49.927611 33.3707236L45.8599539 31.0215492C45.7581975 30.9627869 45.626893 31.0311292 45.626893 31.1428517L45.626893 32.641053 45.626893 37.6615823C45.3520748 37.6043043 45.0582923 37.5727643 44.7525173 37.5727643 43.2323475 37.5727643 42 38.3399793 42 39.2863821 42 40.2327849 43.2323475 41 44.7525173 41 46.272687 41 47.5050345 40.2327849 47.5050345 39.2863821L47.5052513 39.2863821 47.5052513 34.0969198 49.7669391 35.4031149C49.8686955 35.4618434 50 35.3935011 50 35.2818123L50 33.4920262C50 33.4426079 49.9726193 33.3967315 49.927611 33.3707236M10.9066811 21.191603L9.81631245 20.5582007C9.81366609 20.5564018 9.8111242 20.5544719 9.80833856 20.5528365L3.72084734 17.020895C3.62275804 16.9639166 3.49618557 17.0301842 3.49618557 17.1385152L3.49618557 18.5912355 3.49618557 23.4593566C3.23130615 23.4037847 2.94807633 23.3732349 2.65332092 23.3732349 1.18793565 23.3732349 0 24.1171596 0 25.0348324 0 25.9525053 1.18793565 26.69643 2.65332092 26.69643 4.1187062 26.69643 5.30664185 25.9525053 5.30664185 25.0348324L5.30685077 25.0348324 5.30685077 20.0029066 9.1893348 22.2543713 9.1893348 26.7629266C8.92445538 26.7073547 8.64122555 26.6768048 8.34647015 26.6768048 6.88108488 26.6768048 5.69314923 27.4207296 5.69314923 28.3384024 5.69314923 29.2560753 6.88108488 30 8.34647015 30 9.81185543 30 10.9997911 29.2560753 10.9997911 28.3384024L11 28.3384024 11 25.2564333 11 23.3064766 11 21.3488988C11 21.2848226 10.964692 21.2252929 10.9066811 21.191603"/>
  </g>
</svg>
