<svg xmlns="http://www.w3.org/2000/svg" width="50" height="50" viewBox="0 0 50 50" xmlns:xlink="http://www.w3.org/1999/xlink">
  <defs>
    <linearGradient id="a" x1="0%" y1="0%" y2="100%">
      <stop stop-color="#4A7BF1" offset="0%"/>
      <stop stop-color="#1B50CF" offset="100%"/>
    </linearGradient>
    <linearGradient id="b" x1="50%" x2="58.957%" y1="237.768%" y2="0%">
      <stop stop-color="#6998108" offset="0%"/>
      <stop stop-color="#4A7BF1" offset="53.426%"/>
      <stop stop-color="#1B50CF" offset="100%"/>
    </linearGradient>
    <path id="c" d="M11.9960486,44 C9.23680714,44 7,41.7647948 7,38.9930877 L7,11.0069123 C7,8.24167097 9.24265032,6 11.9960486,6 L37.0039514,6 C39.7631929,6 42,8.23520515 42,11.0069123 L42,38.9930877 C42,41.758329 39.7573497,44 37.0039514,44 L11.9960486,44 Z"/>
    <linearGradient id="d" x1="-17.815%" y1="50%" y2="50%">
      <stop stop-color="#5CE6FF" offset="0%"/>
      <stop stop-color="#2FC8FF" offset="100%"/>
    </linearGradient>
  </defs>
  <g fill="none" fill-rule="evenodd">
    <polygon fill="url(#a)" points="14 0 36 0 37 7 13 7"/>
    <polygon fill="url(#a)" points="36 50 14 50 13 43 37 43"/>
    <rect width="5" height="8" x="39" y="14" fill="url(#b)" rx="1"/>
    <use fill="#2154CF" xlink:href="#c"/>
    <path fill="url(#a)" d="M9,12.9970002 C9,10.789518 10.7867947,9 12.9992748,9 L35.0007252,9 C37.2094637,9 39,10.7976585 39,12.9970002 L39,38.0029998 C39,40.210482 37.2132053,42 35.0007252,42 L12.9992748,42 C10.7905363,42 9,40.2023415 9,38.0029998 L9,12.9970002 Z"/>
    <path fill="url(#d)" d="M34.9945489 24.8549448C34.3516216 21.5287199 31.6874653 18.846688 28.3719774 18.1772326 26.09862 17.7182978 23.9429226 18.1772326 22.1948326 19.246677 21.963715 19.389831 21.9343 19.7182431 22.1275984 19.911922L23.0688776 20.8550541C23.2033461 20.9897873 23.4050488 21.0108393 23.5731343 20.9224207 24.9178189 20.1855987 26.5440468 19.911922 28.2543175 20.3455944 30.5696962 20.9350519 32.4060311 22.8549994 32.8892771 25.2001985 33.7381092 29.3264015 30.5991112 32.9726176 26.6238874 32.9726176 25.5229269 32.9726176 24.4849985 32.6863096 23.5815386 32.1936915 23.413453 32.1010624 23.2117503 32.1263249 23.0772819 32.2610581L22.1318006 33.1999798C21.9385021 33.3936587 21.9679171 33.7262812 22.2032369 33.8694351 23.4932937 34.656782 25.0060638 35.1115064 26.6238874 35.1115064 31.8849658 35.1115064 36.0492858 30.3158481 34.9945489 24.8549448M18.8407553 30L15.4286182 30C15.1932984 30 15 30.1894685 15 30.4294619L15 31.7136374C15 31.9494204 15.1890963 32.1430993 15.4286182 32.1430993L18.8449574 32.1430993C19.0802772 32.1430993 19.2735756 31.9536308 19.2735756 31.7136374L19.2735756 30.4294619C19.2693735 30.1894685 19.0802772 30 18.8407553 30M18.9080987 26L14.4286182 26C14.1932984 26 14 26.1894685 14 26.4294619L14 27.7136374C14 27.9494204 14.1890963 28.1430993 14.4286182 28.1430993L18.9123008 28.1430993C19.1476206 28.1430993 19.340919 27.9536308 19.340919 27.7136374L19.340919 26.4294619C19.3367169 26.1936789 19.1476206 26 18.9080987 26M18.975442 21L13.4286182 21C13.1932984 21 13 21.1894685 13 21.4294619L13 22.7136374C13 22.9494204 13.1890963 23.1430993 13.4286182 23.1430993L18.9796442 23.1430993C19.214964 23.1430993 19.4082624 22.9536308 19.4082624 22.7136374L19.4082624 21.4294619C19.4040602 21.1936789 19.214964 21 18.975442 21"/>
    <path fill="url(#d)" d="M28.8994761 30.3744922C29.739904 29.5955662 30.2693735 28.4924384 30.2693735 27.2545775 30.2693735 25.0441116 28.5969221 23.225214 26.453831 23.0020622 26.210107 22.9767997 26 23.1873203 26 23.4315242L26 27.115634C26 27.208263 26.029415 27.2966816 26.0840428 27.372469L28.2817616 30.3071256C28.4288365 30.5008046 28.7187841 30.5429087 28.8994761 30.3744922M23.4286182 16.1388889L28.9796442 16.1388889C29.214964 16.1388889 29.4082624 15.9494204 29.4082624 15.7094269L29.4082624 14.4294619C29.4040602 14.1894685 29.214964 14 28.975442 14L23.4286182 14C23.1932984 14 23 14.1894685 23 14.4294619L23 15.7136374C23 15.9494204 23.1890963 16.1388889 23.4286182 16.1388889"/>
  </g>
</svg>
