<svg xmlns="http://www.w3.org/2000/svg" width="50" height="50" viewBox="0 0 50 50">
  <defs>
    <linearGradient id="a" x1="18.658%" y1="0%" y2="120.352%">
      <stop stop-color="#4A7BF1" offset="0%"/>
      <stop stop-color="#1B50CF" offset="100%"/>
    </linearGradient>
  </defs>
  <g fill="none" fill-rule="evenodd">
    <path fill="#2154CF" d="M49.4358656,10 C52.2590269,23.2028915 44.2340186,36.4401662 31.0010491,39.9744168 C17.7680796,43.5086673 4.17802079,36.0443269 -3.23296945e-13,23.2032901 L49.4358656,10 L49.4358656,10 Z"/>
    <path fill="url(#a)" d="M8.88056262,36.2760752 C4.83814745,33.1816703 1.67471257,28.8863186 0,23.7407984 L47.7196338,11 C49.0879753,23.5034687 41.1438776,35.4768997 28.5731558,38.8331919 C21.6539212,40.6805777 14.6385764,39.5686653 8.88056262,36.2760752 L8.88056262,36.2760752 Z"/>
    <path fill="#2154CF" d="M20.4255213 33.5744681C20.4255213 33.5744681 22.9209239 28.7058675 22.3664052 26.7472477 21.8118865 24.788628 19.7441865 23.611212 17.7480681 24.1174155 15.7519496 24.623619 14.5833022 26.621753 15.1378209 28.5803727 15.6923396 30.5389924 20.4255213 33.5744681 20.4255213 33.5744681zM35.1169641 31.3829787C35.1169641 31.3829787 36.5297716 28.1467375 36.2075251 26.8404377 35.8852786 25.5341379 34.7003982 24.7439955 33.5610205 25.0756052 32.4216429 25.407215 31.7592272 26.7350031 32.0814736 28.0413029 32.4037201 29.3476027 35.1169641 31.3829787 35.1169641 31.3829787z"/>
    <path fill="#2DC6FE" d="M29.1169641,24.3829787 C29.1169641,24.3829787 30.5297716,21.1467375 30.2075251,19.8404377 C29.8852786,18.5341379 28.7003982,17.7439955 27.5610205,18.0756052 C26.4216429,18.407215 25.7592272,19.7350031 26.0814736,21.0413029 C26.4037201,22.3476027 29.1169641,24.3829787 29.1169641,24.3829787 Z"/>
    <path fill="#2154CF" d="M38.3872568 20.3191489C38.3872568 20.3191489 39.4074446 17.6515153 39.1497708 16.5613037 38.892097 15.4710922 37.9936788 14.7967606 37.1430976 15.055142 36.2925164 15.3135234 35.81187 16.4067739 36.0695438 17.4969854 36.3272176 18.587197 38.3872568 20.3191489 38.3872568 20.3191489zM26.3872568 34.3191489C26.3872568 34.3191489 27.4074446 31.6515153 27.1497708 30.5613037 26.892097 29.4710922 25.9936788 28.7967606 25.1430976 29.055142 24.2925164 29.3135234 23.81187 30.4067739 24.0695438 31.4969854 24.3272176 32.587197 26.3872568 34.3191489 26.3872568 34.3191489z"/>
  </g>
</svg>
