<svg xmlns="http://www.w3.org/2000/svg" width="50" height="50" viewBox="0 0 50 50" xmlns:xlink="http://www.w3.org/1999/xlink">
  <defs>
    <rect id="a" width="50" height="34" y="4" rx="2"/>
    <linearGradient id="b" x1="100%" x2="11.874%" y1="145.517%" y2="13.791%">
      <stop stop-color="#4B7CF2" offset="0%"/>
      <stop stop-color="#4879F0" offset="2.519%"/>
      <stop stop-color="#1B50CF" offset="100%"/>
    </linearGradient>
    <linearGradient id="c" x1="-17.815%" y1="50%" y2="50%">
      <stop stop-color="#5CE6FF" offset="0%"/>
      <stop stop-color="#2FC8FF" offset="100%"/>
    </linearGradient>
  </defs>
  <g fill="none" fill-rule="evenodd">
    <polygon fill="#183F9C" points="19 37 32 37 33 43.182 18 43.182"/>
    <path fill="#2154CF" d="M18,43 L33,43 L34.9338652,44.9338652 C35.5226752,45.5226752 35.3250769,46 34.5065668,46 L16.4934332,46 C15.6686328,46 15.46875,45.53125 16.0661348,44.9338652 L18,43 Z"/>
    <use fill="#2154CF" xlink:href="#a"/>
    <rect width="48" height="26" y="6" fill="url(#b)"/>
    <circle cx="25" cy="35" r="1" fill="#2EC8FF"/>
    <path fill="url(#c)" d="M32,22.3738531 C31.4498,23.9888531 29.8027,26.8483947 28.1059,26.8795614 C26.9803,26.9015197 26.6184,26.2045197 25.3318,26.2045197 C24.0459,26.2045197 23.6434,26.8583114 22.5794,26.9008114 C20.779,26.9709364 18,22.7733531 18,19.1126864 C18,15.7502281 20.3156,14.0835197 22.3386,14.0530614 C23.4236,14.0332281 24.4484,14.7932697 25.1099,14.7932697 C25.7742,14.7932697 27.0188,13.8795197 28.3271,14.0133947 C28.8745,14.0367697 30.4124,14.2365197 31.3994,15.6971031 C28.7807,17.4268531 29.1888,21.0443114 32,22.3738531"/>
    <path fill="url(#c)" d="M28.3880656,10 C26.4098656,10.08075 24.7956656,12.1809583 25.0210656,13.9177917 C26.8494656,14.0615833 28.6036656,11.9875833 28.3880656,10"/>
  </g>
</svg>
